<svg width="40" height="40" viewBox="0 0 40 40" fill="none" xmlns="http://www.w3.org/2000/svg">
  <!-- Dark theme provider icon -->
  <rect x="4" y="6" width="32" height="28" rx="3" ry="3" fill="#1F2937" stroke="#374151" stroke-width="2"/>
  
  <!-- Left column -->
  <rect x="8" y="12" width="10" height="18" rx="2" fill="#4B5563"/>
  <rect x="10" y="14" width="6" height="2" rx="0.5" fill="#9CA3AF"/>
  <rect x="10" y="17" width="6" height="2" rx="0.5" fill="#9CA3AF"/>
  <rect x="10" y="20" width="6" height="2" rx="0.5" fill="#9CA3AF"/>
  <rect x="10" y="23" width="6" height="2" rx="0.5" fill="#9CA3AF"/>
  
  <!-- Right column -->
  <rect x="22" y="12" width="10" height="12" rx="2" fill="#4B5563"/>
  <rect x="24" y="14" width="6" height="2" rx="0.5" fill="#9CA3AF"/>
  <rect x="24" y="17" width="6" height="2" rx="0.5" fill="#9CA3AF"/>
  <rect x="24" y="20" width="6" height="2" rx="0.5" fill="#9CA3AF"/>
  
  <!-- Upload/AI indicator -->
  <circle cx="20" cy="30" r="3" fill="#10B981" stroke="#1F2937" stroke-width="2"/>
  <path d="M18.5 29 L20 27.5 L21.5 29" stroke="#1F2937" stroke-width="1.5" fill="none" stroke-linecap="round"/>
  <path d="M20 27.5 L20 31.5" stroke="#1F2937" stroke-width="1.5" stroke-linecap="round"/>
</svg>